<svg height="480pt" viewBox="0 -63 480 479" width="480pt" xmlns="http://www.w3.org/2000/svg"><g fill="#9bc9ff"><path d="m56 216.5v-32c0-8.835938 7.164062-16 16-16v-48c-.027344-8.824219-7.175781-15.972656-16-16h-32c-8.824219.027344-15.972656 7.175781-16 16v176h64v-64c-8.835938 0-16-7.164062-16-16zm0 0"/><path d="m72 168.5c-8.835938 0-16 7.164062-16 16v32c0 8.835938 7.164062 16 16 16h168v-64zm0 0"/><path d="m240 232.5h168c8.835938 0 16-7.164062 16-16v-32c0-8.835938-7.164062-16-16-16h-168zm0 0"/><path d="m72 120.5v48h168v-128c0-17.671875-14.328125-32-32-32h-128c-17.671875 0-32 14.328125-32 32v64h8c8.824219.027344 15.972656 7.175781 16 16zm0 0"/><path d="m408 168.5v-48c.027344-8.824219 7.175781-15.972656 16-16h8v-64c0-17.671875-14.328125-32-32-32h-128c-17.671875 0-32 14.328125-32 32v128zm0 0"/><path d="m456 104.5h-32c-8.824219.027344-15.972656 7.175781-16 16v48c8.835938 0 16 7.164062 16 16v32c0 8.835938-7.164062 16-16 16v64h64v-176c-.027344-8.824219-7.175781-15.972656-16-16zm0 0"/><path d="m240 232.5h-168v64h336v-64zm0 0"/></g><path d="m456 96.5h-16v-56c-.027344-22.082031-17.917969-39.972656-40-40h-128c-12.640625.035156-24.511719 6.0625-32 16.246094-7.488281-10.183594-19.359375-16.210938-32-16.246094h-128c-22.082031.027344-39.972656 17.917969-40 40v56h-16c-13.253906 0-24 10.746094-24 24v176c0 4.417969 3.582031 8 8 8h56v32c0 4.417969 3.582031 8 8 8h32c4.417969 0 8-3.582031 8-8v-32h256v40c0 4.417969 3.582031 8 8 8h32c4.417969 0 8-3.582031 8-8v-40h56c4.417969 0 8-3.582031 8-8v-176c0-13.253906-10.746094-24-24-24zm-184-80h128c13.253906 0 24 10.746094 24 24v56c-13.253906 0-24 10.746094-24 24v40h-152v-120c0-13.253906 10.746094-24 24-24zm-192 272v-48h320v48zm328-112c4.417969 0 8 3.582031 8 8v32c0 4.417969-3.582031 8-8 8h-160v-48zm-176 48h-160c-4.417969 0-8-3.582031-8-8v-32c0-4.417969 3.582031-8 8-8h160zm-176-184c0-13.253906 10.746094-24 24-24h128c13.253906 0 24 10.746094 24 24v120h-152v-40c0-13.253906-10.746094-24-24-24zm-40 80c0-4.417969 3.582031-8 8-8h32c4.417969 0 8 3.582031 8 8v41.367188c-.273438.097656-.511719.242187-.800781.34375-.445313.175781-.871094.386718-1.304688.585937-.882812.414063-1.746093.882813-2.574219 1.398437-.390624.242188-.800781.480469-1.160156.746094-.945312.671875-1.839844 1.40625-2.679687 2.207032-.175781.167968-.375.3125-.542969.480468-.980469.988282-1.871094 2.058594-2.664062 3.199219-.21875.320313-.402344.671875-.609376 1-.546874.871094-1.039062 1.777344-1.472656 2.710937-.199218.441407-.375.882813-.550781 1.328126-.359375.945312-.660156 1.90625-.898437 2.890624-.109376.4375-.238282.863282-.316407 1.308594-.28125 1.460938-.425781 2.945313-.425781 4.433594v32c.011719 1.480469.160156 2.957031.449219 4.40625.078125.449219.207031.875.3125 1.3125.242187.980469.542969 1.945312.902343 2.890625.175782.445313.351563.886719.550782 1.328125.433594.933594.925781 1.839844 1.472656 2.710938.207031.328124.390625.679687.609375 1 .792969 1.140624 1.6875 2.210937 2.664063 3.199218.167968.167969.367187.3125.542968.480469.839844.796875 1.734375 1.535156 2.679688 2.207031.375.265625.800781.503906 1.160156.746094.832031.519531 1.695312.988281 2.585938 1.40625.421874.199219.847656.402344 1.292968.570312.265625.109376.503906.253907.800782.351563v49.390625h-48.023438zm80 208h-16v-24h16zm304 8h-16v-32h16zm64-48h-48v-49.367188c.273438-.097656.511719-.242187.800781-.34375.445313-.175781.871094-.378906 1.304688-.585937.882812-.414063 1.746093-.882813 2.574219-1.398437.390624-.242188.800781-.480469 1.160156-.746094.945312-.671875 1.839844-1.40625 2.679687-2.207032.175781-.167968.375-.3125.542969-.480468.980469-.988282 1.871094-2.058594 2.664062-3.199219.21875-.320313.402344-.671875.609376-1 .546874-.871094 1.039062-1.777344 1.472656-2.710937.199218-.441407.375-.882813.550781-1.335938.363281-.941406.664063-1.902344.898437-2.882812.109376-.4375.238282-.863282.316407-1.308594.28125-1.460938.425781-2.945313.425781-4.433594v-32c-.011719-1.480469-.160156-2.957031-.449219-4.40625-.078125-.449219-.207031-.875-.320312-1.3125-.230469-.980469-.53125-1.941406-.894531-2.882812-.175782-.453126-.351563-.902344-.550782-1.34375-.433594-.929688-.925781-1.832032-1.472656-2.703126-.207031-.328124-.390625-.679687-.609375-1-.792969-1.140624-1.6875-2.210937-2.664063-3.199218-.167968-.167969-.367187-.3125-.542968-.480469-.839844-.796875-1.734375-1.535156-2.679688-2.207031-.375-.273438-.800781-.503906-1.160156-.746094-.828125-.515625-1.691406-.984375-2.578125-1.398438-.429687-.199218-.855469-.410156-1.300781-.585937-.265625-.101563-.503906-.246094-.800782-.34375v-41.390625c0-4.417969 3.582032-8 8-8h32c4.417969 0 8 3.582031 8 8zm0 0" fill="#1e81ce"/></svg>