<svg height="480pt" viewBox="0 0 480 480" width="480pt" xmlns="http://www.w3.org/2000/svg"><g fill="#9bc9ff"><path d="m120 248v64h240v-64c-.003906-5.375.535156-10.734375 1.601562-16h-243.203124c1.066406 5.265625 1.605468 10.625 1.601562 16zm0 0"/><path d="m361.601562 232c3.203126-15.632812 11.003907-29.949219 22.398438-41.121094v-70.878906c0-61.855469-50.144531-112-112-112h-64c-61.855469 0-112 50.144531-112 112v70.878906c11.394531 11.171875 19.195312 25.488282 22.398438 41.121094zm0 0"/><path d="m456 168h-16c-38.011719.019531-70.769531 26.761719-78.398438 64-1.066406 5.265625-1.605468 10.625-1.601562 16v64h-240v-64c.03125-21.496094-8.625-42.09375-24-57.121094-14.925781-14.699218-35.050781-22.921875-56-22.878906h-16c-8.824219.027344-15.972656 7.175781-16 16v208c0 17.671875 14.328125 32 32 32h400c17.671875 0 32-14.328125 32-32v-208c-.027344-8.824219-7.175781-15.972656-16-16zm0 0"/></g><path d="m456 160h-16c-17.042969-.042969-33.730469 4.902344-48 14.222656v-54.222656c-.074219-66.242188-53.757812-119.9257812-120-120h-64c-66.242188.0742188-119.925781 53.757812-120 120v54.222656c-14.269531-9.320312-30.957031-14.265625-48-14.222656h-16c-13.253906 0-24 10.746094-24 24v208c.0273438 22.082031 17.917969 39.972656 40 40h48v40c0 4.417969 3.582031 8 8 8h48c4.417969 0 8-3.582031 8-8v-40h176v40c0 4.417969 3.582031 8 8 8h48c4.417969 0 8-3.582031 8-8v-40h48c22.082031-.027344 39.972656-17.917969 40-40v-208c0-13.253906-10.746094-24-24-24zm-352-40c.066406-57.410156 46.589844-103.933594 104-104h64c57.410156.066406 103.933594 46.589844 104 104v67.609375c-.222656.238281-.40625.511719-.625.75-2.105469 2.261719-4.09375 4.628906-5.949219 7.097656-.25.335938-.472656.6875-.714843 1.023438-1.671876 2.3125-3.199219 4.695312-4.65625 7.144531-.269532.480469-.574219.941406-.796876 1.429688-1.476562 2.664062-2.8125 5.398437-4 8.203124-.257812.589844-.488281 1.191407-.730468 1.789063-1.230469 2.925781-2.296875 5.914063-3.199219 8.953125h-230.65625c-.878906-3.042969-1.925781-6.039062-3.136719-8.96875-.230468-.589844-.464844-1.183594-.71875-1.765625-1.1875-2.8125-2.523437-5.554687-4-8.226563-.257812-.472656-.542968-.917968-.800781-1.382812-1.445313-2.480469-3.007813-4.878906-4.6875-7.199219-.238281-.328125-.449219-.664062-.6875-.984375-1.859375-2.472656-3.851563-4.847656-5.960937-7.113281-.222657-.238281-.398438-.503906-.625-.742187zm23.601562 120h224.796876c-.238282 2.65625-.398438 5.328125-.398438 8v56h-224v-56c0-2.671875-.160156-5.34375-.398438-8zm8.398438 224h-32v-32h32zm240 0h-32v-32h32zm88-72c0 13.253906-10.746094 24-24 24h-400c-13.253906 0-24-10.746094-24-24v-208c0-4.417969 3.582031-8 8-8h16c34.210938.019531 63.695312 24.085938 70.558594 57.601562.960937 4.738282 1.441406 9.5625 1.441406 14.398438v64c0 4.417969 3.582031 8 8 8h240c4.417969 0 8-3.582031 8-8v-64c-.023438-19.347656 7.765625-37.886719 21.601562-51.414062 13.421876-13.246094 31.539063-20.644532 50.398438-20.585938h16c4.417969 0 8 3.582031 8 8zm0 0" fill="#1e81ce"/></svg>