<svg height="480pt" viewBox="0 -68 480 480" width="480pt" xmlns="http://www.w3.org/2000/svg"><path d="m440 96h-16c-17.671875 0-32 14.328125-32 32v88h-304v-88c0-17.671875-14.328125-32-32-32h-16c-17.671875 0-32 14.328125-32 32v144c0 17.671875 14.328125 32 32 32h400c17.671875 0 32-14.328125 32-32v-144c0-17.671875-14.328125-32-32-32zm0 0" fill="#9bc9ff"/><path d="m392 216v-149.601562c0-32.269532-21.488281-58.398438-48-58.398438h-208c-26.511719 0-48 26.160156-48 58.398438v149.601562zm0 0" fill="#9bc9ff"/><path d="m440 88h-16c-8.683594.03125-17.117188 2.914062-24 8.207031v-29.808593c0-36.628907-25.128906-66.398438-56-66.398438h-208c-30.871094 0-56 29.800781-56 66.398438v29.777343c-6.886719-5.28125-15.320312-8.15625-24-8.175781h-16c-22.082031.027344-39.9726562 17.917969-40 40v144c.0273438 22.082031 17.917969 39.972656 40 40h24v24c0 4.417969 3.582031 8 8 8h32c4.417969 0 8-3.582031 8-8v-24h256v24c0 4.417969 3.582031 8 8 8h32c4.417969 0 8-3.582031 8-8v-24h24c22.082031-.027344 39.972656-17.917969 40-40v-144c-.027344-22.082031-17.917969-39.972656-40-40zm-344-21.601562c0-27.804688 17.945312-50.398438 40-50.398438h208c22.054688 0 40 22.625 40 50.398438v141.601562h-288zm0 261.601562h-16v-16h16zm304 0h-16v-16h16zm64-56c0 13.253906-10.746094 24-24 24h-400c-13.253906 0-24-10.746094-24-24v-144c0-13.253906 10.746094-24 24-24h16c13.253906 0 24 10.746094 24 24v88c0 4.417969 3.582031 8 8 8h304c4.417969 0 8-3.582031 8-8v-88c0-13.253906 10.746094-24 24-24h16c13.253906 0 24 10.746094 24 24zm0 0" fill="#1e81ce"/></svg>